<?xml version="1.0" encoding="UTF-8"?>
<svg xmlns="http://www.w3.org/2000/svg" version="1.1" xmlns:xlink="http://www.w3.org/1999/xlink" viewBox="0 0 3024 1836.73">
  <defs>
    <style>
      .cls-1 {
        fill: #fff;
      }

      .cls-2 {
        fill: none;
      }

      .cls-3 {
        fill: url(#Nueva_muestra_de_motivo_2);
        mix-blend-mode: color-burn;
        opacity: .25;
      }

      .cls-4 {
        isolation: isolate;
      }

      .cls-5 {
        fill: #b0a6af;
      }
    </style>
    <pattern id="Nueva_muestra_de_motivo_2" data-name="Nueva muestra de motivo 2" x="0" y="0" width="224.93" height="224.93" patternTransform="translate(2365.98 6118.77)" patternUnits="userSpaceOnUse" viewBox="0 0 224.93 224.93">
      <g>
        <rect class="cls-2" width="224.93" height="224.93"/>
        <path class="cls-1" d="M146.09.83c-.61-.24-1.27-.55-1.79-.83h10.01c.32.56.74,1.09,1.25,1.58,2.83,2.7,7.02,2.7,10.11.49.37-.26.48-.61.42-.94,5.76,5.21,11.39,10.58,17.7,15.12-6.42,9.17-14.59,17.32-26.24,18.56-1.42-3.81-1.24-8.27-2.47-12.15,4.2-.94,2.67-5.67.48-7.94-1.25-1.29-2.86-2.21-4.7-2.1-1.55.09-2.6,1.25-3.28,2.57-1.71-1.66-.97-3.86,1.16-5.9,2.03-1.93,3.87-5.7.58-7.53-.52-.29-1.12-.36-1.71-.43-.26-.03-.8-.21-1.41-.45l-.11-.04ZM162.3,17.07c.24,3.66,4.24,6.57,7.7,6.31,4.06-.31,5.66-5.02,4.97-8.42.04-.21,0-.44-.16-.68-1.78-2.8-4.75-4.85-8.16-3.7-2.8.94-4.55,3.55-4.35,6.48Z"/>
        <path class="cls-1" d="M164.22.35c.25-.18.51-.24.76-.22-.05-.04-.1-.09-.15-.13h-7.69c.08.07.16.14.25.21,2.1,1.56,4.69,1.68,6.84.14Z"/>
        <path class="cls-1" d="M169.63,21.17c2.81-.47,3.63-3.37,3.13-5.84v-.14c-1.15-1.75-3.25-3.33-5.43-2.45-1.51.61-2.8,1.92-2.81,3.64,0,2.34,2.67,5.21,5.12,4.8Z"/>
        <path class="cls-1" d="M154.55,38.71c-.17,2.38,1.98,4.8,4.17,3.51-.06-.11-.11-.23-.14-.37-.26-1.4-.79-3.02-1.76-4.1-.95-1.06-2.17-.4-2.27.96Z"/>
        <path class="cls-1" d="M179.22,34.14c3.08-1.83,7.05-4.16,9.1-7.24,1.43-2.14,2.1-10.3-2.62-9.46-6.56,9.39-15,17.78-26.71,19.46.73,1.02,1.23,2.24,1.55,3.45,6.44-1.36,12.96-2.82,18.68-6.21Z"/>
        <path class="cls-1" d="M153.08,18.77c.46.58.84,1.19,1.16,1.82.09-.05.19-.09.31-.11.99-.19,1.17-.68.95-1.59-.26-1.08-.99-2.09-1.8-2.85-.65-.61-1.71-1.35-2.61-1.19-.8.14-1.29.79-1.62,1.53,1.29.6,2.71,1.26,3.61,2.39Z"/>
        <path class="cls-1" d="M150.58,19.67c.8,5.58,1.13,11.29,2.54,16.74.53-.71,1.29-1.26,2.11-1.46-1.37-4.49-.81-9.75-3.18-13.74-.38-.65-.9-1.13-1.48-1.54Z"/>
        <path class="cls-1" d="M148.59,6.09c.99-1.87.02-2.34-1.03-2.5.31,1.01.51,2.05.62,3.11.16-.2.3-.4.42-.62Z"/>
        <path class="cls-1" d="M219.63,14.93c2,3.53,3.86,7.26,5.3,11.11V0h-19.07c5.48,4.37,10.25,8.7,13.77,14.93Z"/>
        <path class="cls-1" d="M224.15,99.03c-1.97-2.14-3.33-4.59-4.43-7.23-1.07,1.27-2.25,2.47-3.44,3.62h0c.95,4.74,4.01,7.89,7.19,11.19.57-1.06,1.05-2.13,1.46-3.21v-4.05c-.29,0-.59-.12-.78-.32Z"/>
        <path class="cls-1" d="M224.93,161.47v-24.13c-8.68,4.07-4.77,15.52,0,24.13Z"/>
        <path class="cls-1" d="M224.73,86.31c-.29-.55-.59-1.14-.89-1.74-.53,1.86-1.43,3.57-2.54,5.17.92,2.44,2.02,4.71,3.63,6.73v-9.91c-.08-.07-.15-.16-.2-.26Z"/>
        <path class="cls-1" d="M205.26,224.45c.2.16.4.32.6.48h19.07v-3c-6.79-1.44-13.86-1.5-19.67,2.52Z"/>
        <path class="cls-1" d="M208.5,20.48c-.86,2.86,2.13,13.78,5.06,10.04,1.99-2.53-2.07-11.86-5.06-10.04Z"/>
        <path class="cls-1" d="M223.06,27.6c.72,1.97,1.42,4.09,1.87,6.25v8.72c-.68,2.25-2.39,3.62-4.43,4.24-.68.1-1.35.19-2.03.25-.19.02-.35.07-.49.15-1.19.03-2.39-.13-3.49-.48-8.56-2.73-12.99-14.41-15.02-22.18-1.78-6.84-3.59-19.36,3.81-23.75,4.93,3.88,9.56,7.54,12.98,12.89,2.78,4.34,5.02,9.07,6.79,13.9ZM207.23,18.58c-.21.06-.4.21-.54.46-.08.08-.17.15-.25.24-.34.36-.37.79-.23,1.15-.74,3.15.37,6.87,1.7,9.63,1.49,3.12,4.87,5.09,7.43,1.83,3.41-4.35-2.8-17.15-8.1-13.31Z"/>
        <path class="cls-1" d="M224.93,81.7v-10.78c-.5.74-1,1.52-1.49,2.31-.72,2.64.25,5.73,1.49,8.47Z"/>
        <path class="cls-1" d="M211.43,83.78h0c0,4.05-.26,7.99,1.13,11.79,4.01-3.69,8.91-8,9.41-13.58.03-.29.09-.52.25-.69-.57-1.45-1.18-2.94-1.4-4.43-2.37,3.54-4.89,6.58-9.39,6.91Z"/>
        <path class="cls-1" d="M221.33,72.46c.17-.61.43-1.2.75-1.77-5.35,1.36-11.46,5.19-13.04,10.53,6.31,1.6,9.35-3.82,12.28-8.76Z"/>
        <path class="cls-1" d="M91.57,77.44c5.18.22,10.38.15,13.46,4.96,1.59,2.48.83,6.36-2.55,6.69-3.52.34-5.77-1.95-6.98-4.83-1.79,2.84-2.72,6.32-.4,9.25,2.03,2.57,5.19,4.14,8.41,4.59,7.33,1.04,13.87-2.52,17.31-9.05,3.06-5.81,4.36-13.35,1.48-19.51-3.44-7.34-13.87-11.58-17.91-3.76,5.09-1.03,11.33,4.69,5.67,8.36-10.76,6.99-16.16-17.92-25-9.97-2.29,2.06-3.49,5.7-2.31,8.67,1.51,3.81,5.14,4.43,8.83,4.59Z"/>
        <path class="cls-1" d="M192.87,98.44c-.1-.07-.18-.14-.24-.22-1.32,1.24-2.37,3.41-4.06,3.38-.66-.01-1.16-.15-1.64-.65-1.1-1.13-.83-.94-1.97.01-1.5,1.25-2.67,1.06-4.45.38-1.37-.52-2.64-1.53-4.16-1.04-1.35.43-2.65,1.02-4.01,1.4-1.5.42-4.25-.77-5.13.32-2.37,2.92-5.68,1.19-7.7-1.11-3.13,2.34-6.83,4.59-8.61.65-.92.64-1.9,1.14-3.08,1.15-1.26,0-2.2-1.23-3.39-1.51-.21-.05-.36-.15-.48-.26-.79-.29-1.79-.37-2.6-.7-1.1.55-2.26,1.11-3.45,1.33h-.1c-8.62,10.23,16.66,9.02,21.3,8.85,6.98-.26,13.96-.72,20.89-1.6,3.57-.46,7.88-.53,11.11-2.31,3.48-1.92,6.29-5.01,1.8-8.05Z"/>
        <path class="cls-1" d="M140.02,88.25c-.17-.08-.34-.12-.49-.13.55-5.37,1.95-10.65,4.3-15.29.84.5,1.64,1.14,2.33,1.82,1.04,1.02,2.63-.57,1.59-1.59-.83-.82-1.81-1.6-2.83-2.19,1.68-2.84,3.74-5.39,6.23-7.5,2,.29,4.01.39,6,.7,1.42.22,2.03-1.94.6-2.17-1.33-.21-2.68-.32-4.02-.46,2.83-1.85,6.11-3.2,9.86-3.89,1.33-.24,2.66-.34,4-.31v.12c-.04,1.39-.37,2.74-.39,4.12-.02,1.45,2.23,1.45,2.25,0,.02-1.36.34-2.69.37-4.05,5.03.68,9.85,3.13,13.56,6.48.96.86,1.8,1.8,2.55,2.78-.07.07-.15.14-.21.23-.81,1.18-1.82,2.2-2.62,3.37-.82,1.2,1.13,2.32,1.94,1.13.68-.99,1.49-1.87,2.22-2.82,3.31,5.41,4.12,12.06,3.23,18.45-.01.09-.02.17-.01.26-7.12,4.26-16.44,4.92-24.49,5.1-8.51.2-18.2-.31-25.96-4.16ZM178.25,77.45c1.22.8,2.53,1.45,3.75,2.25,1.22.8,2.34-1.15,1.13-1.94-1.22-.8-2.53-1.45-3.75-2.25-1.22-.8-2.34,1.15-1.13,1.94ZM173.2,68.23c1.27-.03,2.47-.39,3.67-.79,1.37-.46.78-2.63-.6-2.17-1,.33-2.01.68-3.08.71-1.45.03-1.45,2.28,0,2.25ZM169.11,74.81c.31,1.01.33,1.67.33,3.17,0,.75,2.25.75,2.25,0,0-1.5-.04-2.67-.42-3.86-.43-1.38-2.6-.7-2.17.69ZM160.98,65.8c.73,1.1,1.41,2.19,1.76,3.48.38,1.4,2.55.8,2.17-.6-.4-1.48-1.15-2.76-1.99-4.02-.8-1.2-2.75-.08-1.94,1.13ZM159.55,79.67c.48-.87,1.72-1.63,2.6-2.22,1.2-.8.07-2.75-1.13-1.94-1.2.8-2.69,1.73-3.4,3.03-.7,1.27,1.24,2.41,1.94,1.13ZM152.2,68.98c.03,1.65.39,3.29,1.28,4.69.77,1.22,2.72.09,1.94-1.13-.68-1.08-.95-2.29-.97-3.56-.02-1.45-2.27-1.45-2.25,0ZM147.37,79.4c.48,1.33,1.34,2.41,1.99,3.64.67,1.29,2.61.15,1.94-1.13-.55-1.05-1.36-1.98-1.76-3.11-.49-1.35-2.66-.77-2.17.6Z"/>
        <path class="cls-1" d="M107.74,120.02c1.42-.07,2.88-.15,4.36-.19,2.34-1.39,5.99-2.45,6.95-5.13-1.99.24-3.82.81-5.72,1.63-.83.36-1.57-.15-1.66-1.02-.13-1.34-.14-2.69-.31-4.02-.55,1.38-1.06,2.79-1.61,4.17-.33.83-1.24,1.03-1.9.44-1.38-1.24-2.5-2.99-4.22-3.67.77,2.79,2.13,5.24,3.97,7.57.06.07.1.15.14.22Z"/>
        <path class="cls-1" d="M138.71,96.34c.05.88.1,1.72.1,2.57.67-.27,1.32-.6,1.96-.91.6-.3,1.15-.11,1.54.4-.68-.9,1.07.01,1.73.21.45.14.89.27,1.32.48l.03.02c2.24.66,2.62,1.89,5.28-.19.63-.49,1.66-.41,1.88.5,1.06,4.29,4.66.44,6.6-1.05.51-.39,1.23-.05,1.54.4.52.77,3.12,3.88,4.5,2.19.3-.36.94-1.45,1.46-1.68,1.71-.76,3.01.82,4.48.41,3.82-1.06,5.67-2.36,9.45-.76,1.92.82,2.59.59,3.95-.76.34-.34.92-.71,1.43-.71,2.09,0,2.01,2.88,4.04.08,2.75-3.8,7.93-2.16,12.05-3.34-2.78-1.96-5.76-3.86-8.89-5.03-.29-.11-.48-.29-.6-.51l-.03.02c-7.49,4.95-17.79,5.85-26.53,5.96-8.96.12-18.92-.42-27.09-4.46-.16-.08-.29-.18-.38-.3-.07.01-.14.02-.2.02-.06.37-.3.68-.8.76-2.23.36-4.82,2.99-5.66,5.33,1.83-.04,3.61-.41,5.44-.75.74-.14,1.38.31,1.42,1.08Z"/>
        <path class="cls-1" d="M127.49,126.35c4.48,4.17,5.78,11.21,4.07,16.9-3.56,11.8-19.61,14.4-29.69,11.2-9.25-2.94-18.58-10.8-19.64-20.94-.58-5.51,1.76-11.06,6.59-13.86,5.12-2.97,12-1.99,16.27,1.95.08.07.16.13.24.17.15.34.46.59.96.57,1.88-.08,3.81-.21,5.75-.27.21.08.45.09.7-.01,5.33-.1,10.63.47,14.75,4.3ZM94.3,122.2c-6.43,5.09-8.17,14.64-2.21,20.78,1.01,1.04,2.66-.49,1.65-1.53-5.16-5.32-3.39-13.27,2.09-17.6,1.14-.9-.4-2.54-1.53-1.65Z"/>
        <path class="cls-1" d="M49.93,72.2c-.14.08-.29.14-.45.18-.12.03-.51.19-.49.17-.09.06-.19.12-.27.19l-.02.03-.09.14-.04.1-.03.15c0,.08.01.15.03.23l.03.13c.03.07.23.47.11.28.25.41.28.45.6.69.19.14.29.2.53.23h.14s.05,0,.05,0h.02c.25-.11.05.02.28-.17.21-.18.61-.77.53-1.24-.09-.53-.47-.88-.94-1.09Z"/>
        <path class="cls-1" d="M58.52,70.37l.16.13c-2.37,5.99-7.2,10.76-13.23,13.52-.08-.04-.17-.07-.27-.09-5.88-1.29-9.73-8.18-11.49-14.43.07-.02.14-.04.21-.07,7.68-3.44,17.96-5.6,24.62.95ZM50.83,70.14c-.39-.17-.75-.1-1.03.08-.17-.08-.36-.12-.55-.07-1.6.36-2.91,1.3-2.95,3.06-.03,1.25.79,2.55,1.84,3.2,1.37.85,2.87.69,3.99-.48,1.77-1.86.99-4.81-1.3-5.78Z"/>
        <path class="cls-1" d="M155.36,217.08l.05-.05c-1.4-1.06-2.83-2.08-4.3-3.05-.68-.45-3.79-3.03-4.56-2.77-.89.3-1.77.5-2.68.71-.84.19-3.76,1.79-2,2.2.81.19,1.54.39,2.28.78,1.5.79,6.03,3.25,3.17,5.54-1.02.82-2.28.84-2.95,2.15-.29.56-.61,1.04-.94,1.56-.1.17.29.46.87.78h10.01c-1.44-2.49-.99-5.5,1.05-7.85Z"/>
        <path class="cls-1" d="M157.14,224.93h7.69c-2.5-2.24-5.03-4.44-7.65-6.52-1.7,1.97-2.17,4.72-.04,6.52Z"/>
        <path class="cls-1" d="M177.19,111.38c-5.56.59-11.14,1.02-16.73,1.22-5.72.21-12.8,1.13-18.81-.37,1.31,4.83,5.43,6.48,10.5,6.85,4.88.36,9.81.51,14.7.52,8.28.01,25.77.65,25.24-11.11-.33.16-.68.32-1.03.46-4.28,1.71-9.33,1.94-13.88,2.42Z"/>
        <path class="cls-1" d="M44.6,222.85c-.6-.1-.94-.84-.79-1.38.75-2.65,1.91-5.15,1.7-7.88-2.92,1.46-4.8,4.59-6.84,7.04-1.39,1.67-2.84,3.14-4.54,4.31h14.83c-.3-1.52-3.26-1.89-4.36-2.08Z"/>
        <path class="cls-1" d="M193.02,152.45c2.12,3.1,2.15,7.12,1.07,10.58-2.23,7.13-11.04,9.87-17.24,6.21-8.45-5-7.58-20.07,1.85-22.36.22.12.49.15.8.03.37-.13.74-.23,1.11-.31.28-.01.55-.03.84-.02.25,0,.45-.06.61-.16,4.26-.2,8.59,2.57,10.96,6.04ZM181.74,163.11c-4.72-.93-3.9-7.76-1.38-10.49.98-1.06-.6-2.66-1.59-1.59-3.61,3.91-4.13,12.97,2.37,14.25,1.42.28,2.02-1.89.6-2.17Z"/>
        <path class="cls-1" d="M207.85,150.87c1.81,8.22.1,16.43-3.34,23.94-1.48,3.23-3.33,6.4-6.32,8.45-3.98,2.73-9.27.91-13.68.7-8.33-.39-16.09,9.09-22.38-.82-1.9-2.99-2.8-6.59-4.32-9.78-1.69-3.55-4.72-5.95-7.35-8.76-2.62-2.79-4.77-5.99-4.88-9.93-.12-4.47,3.3-8.8,6.13-11.91,5.84-6.43,14.5-9.96,23.03-10.77,6.29.12,12.64-.09,18.79,1.49,8.47,2.18,12.55,9.3,14.33,17.39ZM180.19,144.37c-14.05.96-15.14,22.8-2.62,27.76,8.24,3.26,16.99-1.58,19.11-10.02,2.35-9.31-6.91-20.03-16.49-17.74Z"/>
        <path class="cls-1" d="M31.1,51.51c-1.97-.19-3.91-1.03-5.62-2.1.54,2.54,2.7,4.54,5.05,5.78.13-1.24.32-2.47.58-3.68Z"/>
        <path class="cls-1" d="M79.25,174.18c-2.12-.93-4.44-1.54-6.44-2.71-2.15-1.25-3.38-4.3-5.19-6.01-1.6-1.52-3.57-2.61-5.4-3.82-3.06-2.02-4.6-4.63-6.5-7.68-3.2-5.14-8.2-9.4-5.91-15.65l.09-.06c7.45-5.82,13.14,3.26,17.73,8.24,2.59,2.81,7.16,3.95,8.97,7.23,1.12,2.03,1.58,4.24,2.92,6.19,1.53,2.21,4.01,3.89,5.86,5.79,1.68,1.73,2.92,3.87,2.89,6.34-.07,5.28-6.23,3.36-9.03,2.14ZM58.76,148.64c-1.06.68-1.27-.34-1.57-1.26-.35-1.07-.49-2.23-1.04-3.22-.7-1.26-2.76-.36-2.06.91.79,1.43.8,3.18,1.63,4.61,1.06,1.83,2.84,1.77,4.46.72,1.22-.78-.22-2.52-1.42-1.74ZM67.97,155.54c-.42-.51-1.07-.5-1.58-.16-.75.49-1.6.39-2.36,0-.54-.28-1.25.12-1.45.64-.24.62.1,1.17.64,1.45,1.51.79,3.2.57,4.59-.35.51-.34.52-1.15.16-1.58ZM73.67,155.73c-1.16-.87-2.48.95-1.32,1.82,1.28.96.5,2.62-.42,3.57-1,1.03.41,2.78,1.42,1.74,1.95-2,2.89-5.2.31-7.14ZM80.47,170.23c-.84-1.06-1.97-1.88-3.35-1.98-1.45-.11-1.7,2.13-.25,2.23.82.06,1.37.55,1.87,1.17.9,1.13,2.65-.29,1.74-1.42Z"/>
        <path class="cls-1" d="M100.56,183.19c-8.1-.39-16.72,6.85-11.69,14.08,1.47-4.98,9.44-7.83,10.04-1.11,1.15,12.78-23.39,5.91-20.49,17.45.75,2.99,3.41,5.75,6.59,6.1,4.08.44,6.32-2.47,8.19-5.66,2.62-4.48,4.98-9.11,10.68-9.58,2.94-.25,6.02,2.24,4.72,5.38-1.34,3.27-4.42,4.19-7.53,3.91,1.68,2.91,4.32,5.36,7.99,4.68,3.22-.59,6.08-2.65,7.99-5.29,4.34-5.99,4.26-13.44.08-19.54-3.71-5.42-9.77-10.1-16.56-10.42Z"/>
        <path class="cls-1" d="M76.59,114.87c-.7-.64-1.42-1.26-2.19-1.83-.84-.61-.49-1.76.42-2.03,1.18-.35,2.37-.65,3.55-.95-1.72-.61-3.42-1.26-5.14-1.88-.74-.27-1.09-1.42-.36-1.92,2.05-1.41,4.17-2.67,6.36-3.8-2.68.05-5.35.11-8.02.35-.73.07-1.7-.63-1.28-1.48,1.05-2.09,2.55-3.82,4.03-5.57-2.07,1.04-4.09,2.2-6.32,2.89-.55.17-1.26-.32-1.32-.89-.1-.96-.09-1.87,0-2.76-1.5,1.93-2.92,3.94-3.52,6.27,1.55,3.51,4.31,7.77,4.31,11.84,3.15.69,6.3,1.29,9.48,1.77Z"/>
        <path class="cls-1" d="M50.04,124.98c-8.58,1.9-17.5.77-26.24,1.01,5.36-6.3,11.16-12.21,16.95-18.12,4.49-4.59,13.32-10.36,19.42-5.63.24.18.48.25.7.23,1.87,4.16,5.01,8.73,3.4,13.34-1.89,5.4-9.22,8.07-14.23,9.18ZM36.15,121.24c-.37-.78-.6-1.59-.82-2.43-.15-.59-.69-1.01-1.32-.89-.57.11-1.04.72-.89,1.32.26,1.02.55,2.02,1,2.97.62,1.31,2.64.34,2.03-.98ZM43.83,120.48c-1.13-2.03-1.52-4.32-2.02-6.56-.32-1.41-2.52-.99-2.21.43.54,2.42.99,4.91,2.2,7.1.7,1.26,2.73.29,2.03-.98ZM51.13,118.53c-.93-2.65-2.57-5.23-2.69-8.09-.06-1.43-2.3-1.6-2.24-.15.14,3.32,1.83,6.15,2.91,9.22.48,1.37,2.5.38,2.03-.98ZM58.5,117.14c-1.43-4.06-3.48-7.87-4.31-12.12-.28-1.42-2.49-1-2.21.43.87,4.45,3,8.43,4.49,12.67.48,1.37,2.5.38,2.03-.98Z"/>
        <path class="cls-1" d="M147.92,189.25c-1.82-1.93-3.06-4.45-5.02-6.24-3.01-2.74-6.16-1.63-8.54,1.16-.17.19-.36.31-.57.37.16,11.17,13.69,17.66,22.74,20.75,5.65,1.93,11.55,3.21,17.55,3.22,4.02.01,8.02-.38,12-.87-8.34-1.54-16.4-4.42-23.78-8.69-4.73-2.74-10.59-5.7-14.38-9.7Z"/>
        <path class="cls-1" d="M200.57,224.93h-32.54c-6.51-5.87-13.11-11.63-20.82-15.96-.33-.18-.77-.32-1.13-.1-2.91,1.81-5.76.54-6.98,4.39-.8,2.53,2.04,2.87,3.69,3.45.86.3,3.32,2.12,1.68,2.66-1.28.42-1.77,1.22-2.22,2.43-.27.74-1.3,1.49-1.08,2.4.06.26.17.51.3.74H51.24c-.16-2.08-2.67-3.4-4.92-4,.94-3.08,1.96-5.91,1.16-9.21-.14-.58-.81-.96-1.38-.78-6.79,2.09-8.75,10.41-15.1,13.21v-.06c-.09-.52-.42-.77-.81-.81-.27-.68-1.17-1.11-1.83-.44-1.01,1.04-2.21,1.7-3.52,2.09h-7.28c-5.28-1.05-10.9-3.71-14.75-4.71-.93-.24-1.87-.45-2.81-.64v-53.55c1.11,1.67,2.19,3.19,3.13,4.5,5.72,7.99,12.04,14.96,19.91,20.83,8.77,6.54,19.27,13.46,30.32,15.07,7.35,1.07,12.6-2.76,13.8-10.06,1.35-8.28-3.32-14.5-9.92-17.6-.22-9.44-7.86-14.04-16.44-16.06-3.68-8.11-9.68-14.92-17.59-17.56.17-.21.26-.48.21-.83C21.98,134.62,8.67,131.44,0,135.03v-26.43c.09-.16.18-.31.27-.47,2.14,1.71,4.43,3.16,6.93,4.33.7.33,1.38.05,1.65-.67.18-.47.39-.92.6-1.37,1.71.7,3.82,1.97,5.69,1.51,1.94-.49,3.29-3.34,4.31-4.83.25.12.49.25.74.37.54.27,1.22.15,1.54-.4,1.86-3.26,3.21-6.75,3.61-10.49.14.01.28.04.42.05.48.04.98-.37,1.08-.83,1.02-4.36.76-10.92-2.23-14.69.25-.12.49-.25.72-.38.39-.23.71-.81.52-1.27-1.3-3.1-3.73-5.69-6.78-6.97,1.51-.81,2.87-1.85,3.99-3.18.47-.56.42-1.36-.23-1.77C16,63.22,6.77,63.28,0,67.68v-19.54c6.51-1.84,12.15-5.61,16.24-11.4,3.34-4.72,4.08-10.33,5.86-15.69.22-.65.48-1.25.77-1.82.42-.11.74-.45.66-1.03l-.02-.1c2.4-3.72,6.3-5.84,9.23-9.26.76.04,1.59-.79,1.13-1.7-.23-.46-.45-.92-.67-1.38.2.03.42.01.64-.09,4.63-1.99,13.45,1.8,16.73-3.42C51.11,1.42,51.29.67,51.24,0h27.58c-2.22.23-3.5,2.57-3.22,5.06-2.16.25-4.01,1.41-3.5,4.08.3,1.55,1.41,2.79,2.61,3.73,1.72,1.34,4.38,1.72,5.84,3.34.07.08.15.14.22.19.14,2.26,1.61,4.65,3.52,6.54-2.9.62-5.76.59-8.81-1.37-.54-.35-1.04-.14-1.31.27-.42.05-.81.3-.99.78-3.28-1.02-6.03-5.01-9.76-3.73-2.87.99-3.01,3.56-1.83,5.7-1.89.94-2.47,2.97-.91,5.13.87,1.21,2.26,1.98,3.69,2.27,2.31.47,4.59-.93,6.87-1.22,0,.68.51,1.14,1.2,1.16,5.44.15,9.86,4.65,14.06,8.42-.06.21-.05.45.08.71,2.18,4.39,5.09,7.71,9.93,9.04,6.19,1.7,13.89-.4,20.04-1.37,10.45-1.66,27.28-5.74,23.84-19.82-2.78-11.38-12.37-21.96-24.15-23.88-9.77-1.59-19.52,2.68-25.31,10.23-.26-.2-.61-.29-1.01-.15-1.42.48-3.55-2.76-4.27-3.67-.16-.21-.42-.39-.7-.47-.38-3.46-.36-8.74-3.55-10.39C80.73.23,80.11.05,79.53,0h61.95c.5.94,1.4,1.66,2.14,2.39.42.41.9.64,1.41.81.68,1.63.98,3.33,1.01,5.13,0,.14.03.27.07.39-1.9,1.89-2.58,4.64-1.25,7.07.48.88,1.21,1.46,2.04,1.94.18.52.73.85,1.22.83,1.15,7.13,1.39,14.44,3.69,21.34.13.39.39.58.67.64.33,1.22,1.02,2.37,1.94,3.18,1.88,1.66,4.29,1.47,6.16-.08.38-.31.46-.72.36-1.08,10.22-2.19,20.03-5.2,27.75-12.69,2.42-2.35,3.96-5.77,2.89-9.14-1-3.13-2.26-5.86-5.59-5.6-.15-.12-.33-.21-.52-.25-.07-.16-.19-.31-.36-.43C179.07,10.08,173.58,5,168.03,0h32.54c-6.51,5.53-5.13,17.1-3.44,24.43,2.12,9.2,7.22,20.94,16.76,24.48,2.31.86,5.02.85,7.41.04,1.24-.21,2.44-.48,3.62-.82v19.54c-.18.12-.37.23-.55.35-.15.1-.26.23-.34.36-.23-.18-.53-.28-.89-.22-6.72,1.07-15.29,6.32-16.53,13.53-.11.64.16,1.16.79,1.38.84.3,1.64.5,2.4.62-.67,5-.47,9.7,1.68,14.36.31.68,1.28.68,1.77.23.38-.35.77-.72,1.15-1.08,1.4,4.97,4.98,8.36,8.5,12.07.51.54,1.4.38,1.77-.23.09-.15.17-.3.26-.45v26.43c-2.15.89-4.02,2.19-5.34,3.91-5.94,7.74.04,19.11,5.34,27.08v53.55c-7.7-1.51-15.91-1.02-22.25,4.02l-.05.05c-.15.01-.31.05-.47.15-.58.34-1.1.72-1.59,1.14ZM204.26,137.41c-4.77-5.95-13.13-7.12-20.24-7.49-2.84-.15-5.68-.13-8.52-.17-.13-.04-.27-.06-.43-.05-.1,0-.2.02-.29.03-.53,0-1.05-.02-1.58-.03-.36-.01-.63.12-.81.32-7.69,1.15-14.8,4.32-20.67,9.56-5.28,4.71-10.61,12.72-7.4,19.97,1.56,3.54,4.18,6.34,6.89,9.04,3.89,3.87,5.35,7.94,7.55,12.83,1.38,3.07,3.38,6.71,6.73,8,3.94,1.52,7.72.19,11.47-1.28,2.51-.98,4.8-1.86,7.55-1.93,2.4-.06,4.82.54,7.2.74,3.8.31,7.23-1.08,9.96-3.64,5.32-5,8.02-14.1,8.89-21.08,1.06-8.47-.91-18.09-6.31-24.82ZM129.33,97.09c-.07.65.57,1.08,1.12,1.12,2.09.18,4.07-.16,6.09-.54.04.62.07,1.24.02,1.86-3.48,3.84-4.33,8.26.81,11.07.59.32,1.2.59,1.83.84.76,4.42,2.99,7.45,7.44,8.96,6.13,2.08,13.84,1.39,20.21,1.44,10.33.09,28.99-.09,27.35-14.66,3.51-2.68,4.62-6.72.71-10,3.43-.65,6.63.17,9.95-1.75.79-.46.66-1.46,0-1.94-3.42-2.5-7.16-4.99-11.14-6.49-.37-.14-.68-.08-.91.09l-.1-.15c1.06-8.57-.6-16.66-6.42-23.29-5.21-5.93-13.35-9-21.15-8.56-7.76.44-15.3,5.32-20.15,11.18-5.16,6.22-7.04,14.35-7.77,22.22-.11-.01-.22-.01-.33,0-3.66.6-7.2,5.07-7.57,8.58ZM116.65,119.89c2.54-1.42,4.78-3.09,4.89-6.4.02-.58-.49-1.18-1.1-1.15-2.34.09-4.5.61-6.64,1.4-.15-2.17-.28-4.26-1.17-6.33-.32-.75-1.57-.79-1.94-.07-.97,1.88-1.7,3.85-2.44,5.81-1.74-1.76-3.28-3.46-6.06-3.46-.76,0-1.25.66-1.12,1.39.43,2.42,1.29,4.62,2.46,6.68-9.2-5.04-21.61-.07-23.32,11.17-1.97,13,8.97,23.15,20.17,27.38,11.97,4.52,28.48.41,33.34-12.41,2.33-6.15.15-13.47-3.88-18.34-3.36-4.06-8.17-5.35-13.18-5.66ZM86.52,79c3.86,1.18,8.06.49,12,1.26,1.96.38,7.12,3.85,4.6,6.2-2.92,2.72-5.77-3.11-6.16-4.95-.27-1.3-2.21-1.19-2.26-.03-5.7,7.35-2.83,15.41,5.94,18.25,8.66,2.81,17.46-1.39,21.84-9.1,4.39-7.73,5.23-17.93-.14-25.42-2.75-3.83-7.27-6.16-11.96-6.1-4.88.06-7.83,4.22-9.07,8.44-.15.23-.19.47-.15.69,0,.55.45.86.95.9.36.08.75,0,1.07-.34,3.23-3.41,10.88,2.44,3.65,4.19-4.4,1.07-7.85-4.95-10.14-7.75-3.95-4.82-10.28-6.68-14.61-1.17-4.08,5.19-1.8,13,4.43,14.92ZM30.34,57.59c-.11,2.16-.07,4.29.06,6.26.52,8.19,5.55,20.34,14.42,22.28h.05c.27.23.64.33,1.07.14,8.74-3.85,14.8-11.22,16.3-20.56,11.77,5.03,5.48-21.05,4.89-25.91-.1-.82-1.09-1.33-1.78-.79-2.61,2.05-4.73,4.61-7.2,6.81-2.17-3.58-5.08-6.55-8.66-8.18,1.59-5.49,5.37-10.04,6.47-15.74.12-.64-.34-1.15-.92-1.29-7.71-1.98-17.67-.55-24.34,3.87-.4.27-.58.87-.39,1.32,2.19,4.86,5.8,8.78,8.65,13.24-3.8,2.28-6.04,6.04-7.28,10.26-2.38-.06-4.87-1.55-6.66-2.95-.65-.5-1.7-.17-1.82.69-.64,4.83,3,8.7,7.16,10.57ZM55.31,125.81c4.78-1.68,9.65-5.18,11.38-10.1.05-.13.07-.26.11-.39,4.3.94,8.63,1.71,13,2.26.92.11,1.64-1.18.93-1.85-1.1-1.04-2.17-2.11-3.3-3.1,1.71-.44,3.42-.85,5.12-1.35.98-.29,1.33-1.83.16-2.17-2.25-.64-4.43-1.46-6.61-2.27,2.88-1.82,5.88-3.36,9.07-4.63,1.01-.4.71-2.19-.41-2.14-3.91.18-7.81.14-11.71.37,1.6-2.35,3.74-4.32,5.33-6.69.5-.75-.15-2.05-1.14-1.74-3.1.95-5.76,2.82-8.75,3.99.04-1.42.35-2.74.8-4.15.25-.79-.34-1.37-.98-1.46-.46-.27-1.08-.27-1.48.29-2.12,2.93-4.9,5.77-6,9.29-5.86-3.92-13.11-.34-18.24,3.37-4.1,2.96-7.48,7.08-10.96,10.72-3.89,4.05-7.67,8.2-11.25,12.54-.71.86.28,1.8,1.14,1.74,11.3-.74,22.86,1.33,33.79-2.51ZM72.35,173.78c2.82,1.36,5.89,2.54,8.84,3.6,4.34,1.57,9.92-.87,9.34-6.16-.72-6.6-7.15-8.92-10.15-14.17-1.45-2.54-1.66-5.15-4.02-7.11-2.25-1.86-4.9-2.71-6.97-4.88-5.47-5.74-11.56-14.75-19.88-9.28-.49-.11-1.05.06-1.32.63-3.03,6.23,0,10.86,3.72,15.94,2.07,2.82,3.58,6.68,6.28,8.99,2.99,2.55,6.62,4.21,9.27,7.14,1.67,1.85,2.53,4.15,4.89,5.28ZM119.31,192.87c-4.79-7.5-13.41-13.01-22.54-11.75-4.67.64-8.84,3.55-10.98,7.72-2.23,4.35.07,8.89,3.23,11.97.13.24.32.39.54.46.48.25.97,0,1.25-.42.24-.28.35-.67.2-1.11-1.51-4.45,7.24-8.48,5.41-1.27-1.11,4.39-8.04,4.62-11.59,5.34-6.1,1.24-10.71,5.97-7.86,12.37,2.68,6.03,10.65,7.67,15.26,3.05,2.85-2.86,4.2-6.9,6.72-10.02,1.25-1.55,6.73-4.49,7.62-1.17,1.04,3.86-5.44,3.65-7.25,3.13-1.28-.37-2.08,1.4-1.08,1.98,3.84,8.47,12.3,9.7,18.91,3.27,6.53-6.34,6.93-16.09,2.16-23.56ZM194.79,206.51c-14.41-1.09-26.95-6.36-38.95-14.21-3.08-2.01-6.11-4.09-8.33-7.07-1.42-1.9-2.81-4.24-5.03-5.32-2.55-1.24-4.89-.88-6.95.36.43-5.66-2.45-11-4.18-16.24-.45-1.38-2.48-.39-2.03.97,1.48,4.49,3.92,9.07,4,13.88-3.13-5.7-7.74-10.42-11.18-15.97-.76-1.22-2.79-.26-2.03.97,3.11,5.01,7.21,9.39,10.28,14.4-1.08-.88-2.26-1.64-3.37-2.36-4.29-2.8-7.94-5.94-11.23-9.91-.93-1.12-2.64.34-1.71,1.46,2.5,3.01,5.33,6.11,8.58,8.33,2.35,1.61,5.64,3.08,7.6,5.39-4.11-1.5-8.48-2.49-11.87-5.31-1.12-.93-2.37.94-1.26,1.86,4.16,3.45,9.64,4.13,14.43,6.35v.05c-.04,11.78,12.3,18.57,21.84,22.38,5.83,2.33,12.01,3.74,18.27,4.16,7.78.52,15.58-.96,23.27-1.95,1.29-.17,1.11-2.13-.14-2.23Z"/>
        <path class="cls-1" d="M62.5,63.35c5.91,2.8,4.93-6.53,4.54-10.16-.4-3.74-1.28-7.4-1.87-11.11-2.04,1.85-3.86,3.92-5.93,5.74,2.46,4.92,3.61,10.64,3.26,15.53Z"/>
        <path class="cls-1" d="M50.63,61.13c-.45.52-1.38.58-1.78-.05-1.62-2.54-5.93-3.27-6.68.42-.17.82-1.14,1.23-1.82.69-2.8-2.27-5.31-.9-6.82,1.98-.19.36-.48.54-.79.59.09.81.23,1.65.41,2.54,8.18-3.65,19.09-5.66,26.31.88.32-1.14.55-2.32.68-3.53-.12-.11-.21-.25-.28-.44-1.17-3.22-6.56-6.2-9.23-3.08Z"/>
        <path class="cls-1" d="M0,221.93v3h10.25c-.34-.12-.68-.23-1.01-.35C6.33,223.58,3.19,222.61,0,221.93Z"/>
        <path class="cls-1" d="M37.89,42.59c.83-.8,1.77-1.48,2.85-2.02.82-.41.79-1.41.32-1.92.03-.24,0-.5-.17-.76-2.6-4.11-5.92-7.74-8.09-12.1,5.82-3.48,14.05-4.59,20.69-3.24-1.36,5.37-4.98,9.83-6.39,15.22-.12.47.04.81.33,1.02.07.27.27.52.61.66,1.41.58,2.7,1.39,3.87,2.37-1.94.2-3.66.97-5.33,2.13-2.65-2.47-5.67-2.56-8.69-1.36ZM44.27,32.59c0,1.45,2.24,1.21,2.24-.23,0-2.34.04-4.68.25-7.01.13-1.44-2.09-1.82-2.22-.37-.23,2.53-.27,5.07-.26,7.61ZM43.34,36.16c-1.07-3.14-2.13-6.28-2.98-9.49-.37-1.4-2.47-.57-2.1.82.86,3.21,1.91,6.35,2.98,9.49.47,1.37,2.56.55,2.1-.82Z"/>
        <path class="cls-1" d="M41.31,51.93c2.04-2.98,6.22-2.73,8.89-.08,2.37-1.59,5.12-2.39,7.71-1.46-.98-2.35-2.26-4.55-3.85-6.41-.15.05-.32.08-.51.06-2.55-.24-4.47.8-6.43,2.3-.52.4-1.18.21-1.57-.24-2.99-3.43-6.51-2.02-9.74.15-.24.16-.48.21-.7.2-.87,1.71-1.48,3.6-1.9,5.57,2.75-1.52,5.79-2.17,8.1-.08Z"/>
        <path class="cls-1" d="M40.5,59.59c1.8-3.52,6.65-3.71,9.39-.81,3.1-2.3,7.7-.96,10.36,1.89-.12-2.4-.56-4.92-1.3-7.38-.23,0-.46-.06-.69-.22-2.57-1.85-5.44-.44-7.55,1.2-.49.38-1.21.23-1.57-.24-1.55-2.06-5.42-3.54-6.46.14-.24.85-1.43,1.38-2.02.48-2.07-3.2-5.3-1.5-7.73.19l-.19.11c-.27,2.29-.32,4.59-.23,6.71,2.03-2.63,5.01-3.69,8-2.06Z"/>
        <path class="cls-1" d="M75.11,23.97c-.58,1.93-1.08,3.87-1.44,5.85,4.78.68,8.6,4.05,12.17,7.15,3.93,3.42,9.93,9.41,15.57,5.97,3.88-2.36,6.44-6.48,5.88-11.15-.67-5.64-5-10.03-10.96-9.52-7.6.65-14.01,5.84-21.22,1.71Z"/>
        <path class="cls-1" d="M104.17,22.07c5.99,4.4,7.57,14.24,2.1,19.84-4.54,4.65-9.93,5.28-15.24,2,2.38,2.82,5.56,4.48,9.72,4.42,5.19-.07,10.52-.98,15.63-1.85,5.84-.99,12.86-2.19,17.77-5.79,4.6-3.38,5.31-8.49,3.36-13.64-1.55-4.1-3.96-8.19-7.05-11.59-.57,2.42-1.34,4.75-3.33,6.42-1.11.94-2.38-.93-1.28-1.85,1.86-1.56,2.24-4.22,2.73-6.47-2.19-2.04-4.66-3.73-7.37-4.87.33,3.11.05,6.28-.88,9.27-.42,1.37-2.64.95-2.21-.43.96-3.1,1.2-6.32.74-9.53v-.14c-1.32-.38-2.68-.63-4.08-.73-1.09-.08-2.17-.08-3.24-.03.77,3.35,1.23,6.84.47,10.24-.31,1.41-2.52.99-2.21-.43.69-3.11.26-6.33-.46-9.39-.02-.08-.03-.16-.03-.24-8.46,1.07-15.77,6.07-19.4,14.03.9-.28,1.82-.55,2.75-.77,3.77-.88,8.24-.85,11.5,1.54Z"/>
        <path class="cls-1" d="M.59,99.21c-.17.12-.38.15-.59.14v4.05c.58-1.53,1.01-3.1,1.31-4.75-.24.19-.47.38-.73.55Z"/>
        <path class="cls-1" d="M86.88,22.26c.1-.03.2-.06.29-.09,0-.11.03-.21.07-.33.6-1.57,1.34-3.06,2.22-4.47-2.01-.14-3.75-2.2-5.03-3.84-3.5,2.42-.18,6.55,2.45,8.72Z"/>
        <path class="cls-1" d="M64.38,20.98c-2.08.38-1.24,2.33-.24,3.38.68.7.38,1.85-.65,1.97-2.56.31-1.22,2.51.44,3.19,2.39.98,5.21-.95,7.69-1.05.26-1.24.56-2.46.91-3.68-1.63-.46-2.97-1.42-4.4-2.42-1.05-.74-2.39-1.65-3.76-1.39Z"/>
        <path class="cls-1" d="M14.85,105.78c-.12.55-.83,1-1.38.79-.61-.24-1.2-.51-1.78-.79-.31.93-.75,1.8-1.21,2.67,1.23.58,2.85,1.49,4.02,1.33,1.04-.14,2.34-2.75,2.94-3.7-.79-.4-1.59-.8-2.38-1.19-.07.3-.14.6-.2.9Z"/>
        <path class="cls-1" d="M15.54,83.06c-.06-.11-.09-.22-.11-.33-2.51-.17-4.92-.84-6.74-2.11-.08.21-.2.4-.3.59.03,2.42-.2,4.85-.76,7.17l.18.02c3.27.67,6.5,1.49,9.82,1.85-.1-2.55-.88-4.88-2.1-7.2Z"/>
        <path class="cls-1" d="M24.84,0h-7.28C20.16.52,22.66.64,24.84,0Z"/>
        <path class="cls-1" d="M0,33.85v8.72c.03-.11.07-.2.1-.31C.78,39.54.59,36.66,0,33.85Z"/>
        <path class="cls-1" d="M6.06,84.01c-1.37,1.11-3.03,1.97-4.72,2.71-.44.19-.98.19-1.33-.14v9.91c.06.08.12.16.18.24,3.89-3.1,5.5-7.86,5.87-12.71Z"/>
        <path class="cls-1" d="M6.14,80.95c0-.44.23-.75.53-.91.21-.49.33-1.03.3-1.61-.17-4.03-3.35-6.48-6.88-7.66-.03.05-.06.1-.09.14v10.78c.41.92.86,1.79,1.28,2.6,1.7-.77,3.74-1.83,4.87-3.34Z"/>
        <path class="cls-1" d="M1.18,45.41c2.52-.89,4.91-2.1,7.08-3.62l.06-.16c3.82-8.05.07-18.02-4.87-24.73-.86-1.17,1.09-2.29,1.94-1.13,4.73,6.42,8.04,15.3,6.17,23.28,2.13-2.1,3.87-4.59,5.05-7.43-.12-.17-.2-.39-.19-.66.21-9.35-3.86-19.21-11.44-24.9-1.15-.86-.03-2.81,1.13-1.94,6.81,5.11,11.09,13.15,12.24,21.56.69-2.86,1.4-5.8,2.78-8.28-.64-3.13-2.49-5.86-3.82-8.73-.6-1.31,1.34-2.45,1.94-1.13,1.18,2.57,2.61,4.95,3.52,7.56,2.58-2.98,6.12-4.94,8.56-8.04-1.03-2.13-1.95-4.31-2.39-6.64C23.81,4.35,15.98,1.96,10.25,0H0v26.04c.79,2.13,1.46,4.29,1.95,6.49.87,3.95,1.65,9.25-.77,12.88Z"/>
        <path class="cls-1" d="M32.39,3.95c.09-.08.19-.15.32-.21,3.74-1.6,6.78-.76,10.69-.9,1.42-.05,5.22-.3,5.57-2.31.03-.19.02-.36-.01-.52h-14.83c-.81.56-1.68,1.05-2.63,1.44.25.85.55,1.69.89,2.51Z"/>
        <path class="cls-1" d="M15.57,102.64c1.57.79,3.15,1.57,4.72,2.36,1.45-2.72,2.54-5.62,2.84-8.7-2.11-.3-4.22-.67-6.34-.9-.14,2.44-.65,4.82-1.21,7.24Z"/>
        <path class="cls-1" d="M76.79,7.25c-4.89-.38-1.17,3.78.92,4.81,1.19.59,2.45,1.11,3.53,1.87.33-.69.85-1.34,1.58-1.93-.37-2.25-.51-4.56-1.05-6.77-.29-1.18-.66-2.78-2.16-2.98-2.23-.3-2.06,2.12-1.54,3.52.32.88-.46,1.55-1.27,1.48Z"/>
        <path class="cls-1" d="M9.68,104.69v-.03c-2.37-1.48-4.41-3.35-6.19-5.56-.45,2.44-1.16,4.75-2.19,6.99,1.83,1.51,3.81,2.79,5.92,3.86.85-1.75,1.94-3.38,2.46-5.26Z"/>
        <path class="cls-1" d="M12.97,103.92c.93-3.92,2.05-7.79,1.53-11.85-2.44-.42-4.85-.99-7.28-1.49-.07-.02-.14-.04-.2-.06-.7,2-1.69,3.86-3.02,5.51,2.34,3.41,5.25,6.16,8.98,7.89Z"/>
        <path class="cls-1" d="M17.89,82.75c1.34,2.76,2.14,5.62,1.99,8.74-.03.58-.49,1.17-1.12,1.12-.67-.05-1.33-.13-1.99-.21.02.25.02.5.03.75,2.7.29,5.36.8,8.06,1.11.67-3.9.27-9.49-2.49-12.3-1.4.42-2.93.7-4.48.79Z"/>
        <path class="cls-1" d="M7.27,72.62c2.51.08,5.23-.16,7.75-.92l.15-.04c1.96-.61,3.79-1.54,5.28-2.91-5.74-3.01-12.86-2.86-18.48.35,1.86.8,3.75,1.99,5.14,3.53h.16Z"/>
        <path class="cls-1" d="M24.91,189.94c5.02,3.66,10.27,7.09,15.86,9.82,4.74,2.32,10.41,4.96,15.83,4.59,5.52-.38,8.14-4.39,8.48-9.69.72-11.22-10.8-17.08-20.81-15.63-1.43.21-1.75-2.02-.31-2.23,3.7-.54,7.54-.15,11.01,1.04-.19-2.48-1.04-4.55-2.35-6.27-.16.05-.34.07-.53.04-4.81-.7-9.73-1.08-14.13,1.39-1.27.71-2.4-1.23-1.13-1.94,4.2-2.35,8.75-2.44,13.35-1.94-6.22-4.88-17.05-5.78-24.04-5.54-1.43.05-1.76-2.18-.31-2.23,3.62-.12,7.94.05,12.2.78-.92-1.83-1.97-3.59-3.14-5.22-.18,0-.37-.05-.56-.17-3.96-2.42-10.54-3.52-14.86-1.5-1.3.61-2.45-1.33-1.13-1.94,3.84-1.8,8.99-1.66,13.31-.24-4.79-4.8-11.06-7.65-18.65-6.68-1.44.18-1.75-2.04-.31-2.23,3.01-.39,5.84-.22,8.48.39-1.1-7.13-10.62-9.35-16.7-8.48-1.77.25-3.24.68-4.47,1.26v24.13c1.5,2.71,3.09,5.15,4.4,6.97,5.91,8.25,12.3,15.51,20.51,21.49Z"/>
        <path class="cls-1" d="M8.61,74.88c.48,1.06.72,2.22.62,3.47.12.03.23.09.35.18,3.43,2.57,9.7,2.52,13.7.71-1.51-2.85-4.45-5.11-7.69-5.35-2.27.67-4.68.97-6.98,1Z"/>
        <path class="cls-5" d="M82.09,64.08c4.33-5.51,10.67-3.65,14.61,1.17,2.29,2.8,5.74,8.82,10.14,7.75,7.23-1.75-.42-7.6-3.65-4.19-.32.33-.71.42-1.07.34-.5-.04-.95-.36-.95-.9-.04-.22,0-.46.15-.69,1.24-4.23,4.19-8.38,9.07-8.44,4.69-.06,9.21,2.27,11.96,6.1,5.37,7.48,4.53,17.68.14,25.42-4.38,7.71-13.18,11.9-21.84,9.1-8.77-2.84-11.64-10.9-5.94-18.25.05-1.16,1.98-1.27,2.26.03.39,1.84,3.23,7.66,6.16,4.95,2.52-2.34-2.64-5.81-4.6-6.2-3.94-.77-8.15-.08-12-1.26-6.23-1.91-8.51-9.73-4.43-14.92ZM82.74,72.84c1.51,3.81,5.14,4.43,8.83,4.59,5.18.22,10.38.15,13.46,4.96,1.59,2.48.83,6.36-2.55,6.69-3.52.34-5.77-1.95-6.98-4.83-1.79,2.84-2.72,6.32-.4,9.25,2.03,2.57,5.19,4.14,8.41,4.59,7.33,1.04,13.87-2.52,17.31-9.05,3.06-5.81,4.36-13.35,1.48-19.51-3.44-7.34-13.87-11.58-17.91-3.76,5.09-1.03,11.33,4.69,5.67,8.36-10.76,6.99-16.16-17.92-25-9.97-2.29,2.06-3.49,5.7-2.31,8.67Z"/>
        <path class="cls-5" d="M119.31,192.87c4.77,7.47,4.36,17.22-2.16,23.56-6.61,6.43-15.07,5.2-18.91-3.27-1-.58-.2-2.35,1.08-1.98,1.81.52,8.29.72,7.25-3.13-.89-3.32-6.37-.39-7.62,1.17-2.52,3.12-3.87,7.17-6.72,10.02-4.61,4.62-12.58,2.97-15.26-3.05-2.85-6.41,1.76-11.13,7.86-12.37,3.55-.72,10.48-.96,11.59-5.34,1.83-7.21-6.92-3.18-5.41,1.27.15.44.03.82-.2,1.11-.27.43-.76.67-1.25.42-.22-.07-.41-.21-.54-.46-3.16-3.07-5.46-7.62-3.23-11.97,2.14-4.17,6.31-7.08,10.98-7.72,9.12-1.25,17.75,4.25,22.54,11.75ZM117.13,193.61c-3.71-5.42-9.77-10.1-16.56-10.42-8.1-.39-16.72,6.85-11.69,14.08,1.47-4.98,9.44-7.83,10.04-1.11,1.15,12.78-23.39,5.91-20.49,17.45.75,2.99,3.41,5.75,6.59,6.1,4.08.44,6.32-2.47,8.19-5.66,2.62-4.48,4.98-9.11,10.68-9.58,2.94-.25,6.02,2.24,4.72,5.38-1.34,3.27-4.42,4.19-7.53,3.91,1.68,2.91,4.32,5.36,7.99,4.68,3.22-.59,6.08-2.65,7.99-5.29,4.34-5.99,4.26-13.44.08-19.54Z"/>
        <path class="cls-5" d="M55.31,125.81c-10.93,3.84-22.49,1.77-33.79,2.51-.86.06-1.85-.89-1.14-1.74,3.58-4.33,7.36-8.48,11.25-12.54,3.48-3.63,6.86-7.75,10.96-10.72,5.13-3.71,12.38-7.29,18.24-3.37,1.1-3.52,3.88-6.36,6-9.29.4-.56,1.02-.56,1.48-.29.63.09,1.23.67.98,1.46-.45,1.41-.77,2.73-.8,4.15,2.99-1.17,5.65-3.04,8.75-3.99.99-.31,1.64.99,1.14,1.74-1.59,2.37-3.73,4.34-5.33,6.69,3.9-.23,7.81-.19,11.71-.37,1.13-.05,1.42,1.73.41,2.14-3.19,1.27-6.19,2.81-9.07,4.63,2.18.82,4.36,1.64,6.61,2.27,1.17.33.82,1.88-.16,2.17-1.69.5-3.41.91-5.12,1.35,1.13,1,2.2,2.06,3.3,3.1.71.67-.01,1.97-.93,1.85-4.37-.55-8.7-1.32-13-2.26-.04.13-.06.26-.11.39-1.72,4.92-6.59,8.42-11.38,10.1ZM62.8,101.26c1.55,3.51,4.31,7.77,4.31,11.84,3.15.69,6.3,1.29,9.48,1.77-.7-.64-1.42-1.26-2.19-1.83-.84-.61-.49-1.76.42-2.03,1.18-.35,2.37-.65,3.55-.95-1.72-.61-3.42-1.26-5.14-1.88-.74-.27-1.09-1.42-.36-1.92,2.05-1.41,4.17-2.67,6.36-3.8-2.68.05-5.35.11-8.02.35-.73.07-1.7-.63-1.28-1.48,1.05-2.09,2.55-3.82,4.03-5.57-2.07,1.04-4.09,2.2-6.32,2.89-.55.17-1.26-.32-1.32-.89-.1-.96-.09-1.87,0-2.76-1.5,1.93-2.92,3.94-3.52,6.27ZM50.04,124.98c5.01-1.11,12.34-3.78,14.23-9.18,1.61-4.61-1.53-9.18-3.4-13.34-.22.02-.47-.04-.7-.23-6.11-4.73-14.93,1.05-19.42,5.63-5.79,5.91-11.58,11.82-16.95,18.12,8.74-.24,17.66.89,26.24-1.01Z"/>
        <path class="cls-5" d="M54.19,105.02c-.28-1.42-2.49-1-2.21.43.87,4.45,3,8.43,4.49,12.67.48,1.37,2.5.38,2.03-.98-1.43-4.06-3.48-7.87-4.31-12.12Z"/>
        <path class="cls-5" d="M48.44,110.44c-.06-1.43-2.3-1.6-2.24-.15.14,3.32,1.83,6.15,2.91,9.22.48,1.37,2.5.38,2.03-.98-.93-2.65-2.57-5.23-2.69-8.09Z"/>
        <path class="cls-5" d="M41.81,113.93c-.32-1.41-2.52-.99-2.21.43.54,2.42.99,4.91,2.2,7.1.7,1.26,2.73.29,2.03-.98-1.13-2.03-1.52-4.32-2.02-6.56Z"/>
        <path class="cls-5" d="M35.34,118.81c-.15-.59-.69-1.01-1.32-.89-.57.11-1.04.72-.89,1.32.26,1.02.55,2.02,1,2.97.62,1.31,2.64.34,2.03-.98-.37-.78-.6-1.59-.82-2.43Z"/>
        <path class="cls-5" d="M81.18,177.39c-2.95-1.07-6.02-2.25-8.84-3.6-2.35-1.13-3.22-3.44-4.89-5.28-2.66-2.94-6.29-4.59-9.27-7.14-2.71-2.31-4.21-6.17-6.28-8.99-3.73-5.08-6.75-9.71-3.72-15.94.28-.57.84-.73,1.32-.63,8.33-5.46,14.42,3.54,19.88,9.28,2.08,2.18,4.73,3.02,6.97,4.88,2.36,1.95,2.57,4.56,4.02,7.11,2.99,5.25,9.43,7.57,10.15,14.17.58,5.29-5,7.73-9.34,6.16ZM79.25,174.18c2.81,1.23,8.96,3.14,9.03-2.14.03-2.47-1.21-4.61-2.89-6.34-1.85-1.9-4.33-3.58-5.86-5.79-1.35-1.95-1.8-4.16-2.92-6.19-1.8-3.27-6.38-4.42-8.97-7.23-4.59-4.98-10.29-14.07-17.73-8.24l-.09.06c-2.29,6.25,2.71,10.51,5.91,15.65,1.9,3.04,3.44,5.66,6.5,7.68,1.83,1.21,3.8,2.3,5.4,3.82,1.81,1.71,3.03,4.76,5.19,6.01,2.01,1.17,4.32,1.78,6.44,2.71Z"/>
        <path class="cls-5" d="M58.76,148.64c-1.06.68-1.27-.34-1.57-1.26-.35-1.07-.49-2.23-1.04-3.22-.7-1.26-2.76-.36-2.06.91.79,1.43.8,3.18,1.63,4.61,1.06,1.83,2.84,1.77,4.46.72,1.22-.78-.22-2.52-1.42-1.74Z"/>
        <path class="cls-5" d="M66.39,155.38c-.75.49-1.6.39-2.36,0-.54-.28-1.25.12-1.45.64-.24.62.1,1.17.64,1.45,1.51.79,3.2.57,4.59-.35.51-.34.52-1.15.16-1.58-.42-.51-1.07-.5-1.58-.16Z"/>
        <path class="cls-5" d="M73.67,155.73c-1.16-.87-2.48.95-1.32,1.82,1.28.96.5,2.62-.42,3.57-1,1.03.41,2.78,1.42,1.74,1.95-2,2.89-5.2.31-7.14Z"/>
        <path class="cls-5" d="M77.12,168.25c-1.45-.11-1.7,2.13-.25,2.23.82.06,1.37.55,1.87,1.17.9,1.13,2.65-.29,1.74-1.42-.84-1.06-1.97-1.88-3.35-1.98Z"/>
        <path class="cls-5" d="M.27,108.13c-.09.16-.18.32-.27.47v-5.19c.58-1.53,1.01-3.1,1.31-4.75-.24.19-.47.38-.73.55-.17.12-.38.15-.59.14v-2.88c.06.08.12.16.18.24,3.89-3.1,5.5-7.86,5.87-12.71-1.37,1.11-3.03,1.97-4.72,2.71-.44.19-.98.19-1.33-.14v-4.87c.41.92.86,1.79,1.28,2.6,1.7-.77,3.74-1.83,4.87-3.34,0-.44.23-.75.53-.91.21-.49.33-1.03.3-1.61-.17-4.03-3.35-6.48-6.88-7.66-.03.05-.06.1-.09.14v-3.24c6.77-4.39,16-4.46,22.83-.15.65.41.7,1.2.23,1.77-1.12,1.33-2.48,2.37-3.99,3.18,3.05,1.28,5.48,3.87,6.78,6.97.19.46-.12,1.04-.52,1.27-.23.13-.47.26-.72.38,3,3.78,3.25,10.34,2.23,14.69-.11.45-.61.87-1.08.83-.14-.01-.28-.03-.42-.05-.41,3.74-1.76,7.23-3.61,10.49-.32.56-1,.68-1.54.4-.25-.12-.49-.25-.74-.37-1.02,1.49-2.37,4.34-4.31,4.83-1.87.47-3.98-.81-5.69-1.51-.22.45-.43.9-.6,1.37-.27.72-.95,1-1.65.67-2.49-1.17-4.79-2.62-6.93-4.33ZM17.44,106.08c-.79-.4-1.59-.8-2.38-1.19-.07.3-.14.6-.2.9-.12.55-.83,1-1.38.79-.61-.24-1.2-.51-1.78-.79-.31.93-.75,1.8-1.21,2.67,1.23.58,2.85,1.49,4.02,1.33,1.04-.14,2.34-2.75,2.94-3.7ZM17.64,90.26c-.1-2.55-.88-4.88-2.1-7.2-.06-.11-.09-.22-.11-.33-2.51-.17-4.92-.84-6.74-2.11-.08.21-.2.4-.3.59.03,2.42-.2,4.85-.76,7.17l.18.02c3.27.67,6.5,1.49,9.82,1.85ZM23.13,96.29c-2.11-.3-4.22-.67-6.34-.9-.14,2.44-.65,4.82-1.21,7.24,1.57.79,3.15,1.57,4.72,2.36,1.45-2.72,2.54-5.62,2.84-8.7ZM22.38,81.96c-1.4.42-2.93.7-4.48.79,1.34,2.76,2.14,5.62,1.99,8.74-.03.58-.49,1.17-1.12,1.12-.67-.05-1.33-.13-1.99-.21.02.25.02.5.03.75,2.7.29,5.36.8,8.06,1.11.67-3.9.27-9.49-2.49-12.3ZM15.6,73.88c-2.27.67-4.68.97-6.98,1,.48,1.06.72,2.22.62,3.47.12.03.23.09.35.18,3.43,2.57,9.7,2.52,13.7.71-1.51-2.85-4.45-5.11-7.69-5.35ZM7.11,72.63h.16c2.51.06,5.23-.17,7.75-.93l.15-.04c1.96-.61,3.79-1.54,5.28-2.91-5.74-3.01-12.86-2.86-18.48.35,1.86.8,3.75,1.99,5.14,3.53ZM3.99,96.02c2.34,3.41,5.25,6.16,8.98,7.89.93-3.92,2.05-7.79,1.53-11.85-2.44-.42-4.85-.99-7.28-1.49-.07-.02-.14-.04-.2-.06-.7,2-1.69,3.86-3.02,5.51ZM1.31,106.09c1.83,1.51,3.81,2.79,5.92,3.86.85-1.75,1.94-3.38,2.46-5.26v-.03c-2.37-1.48-4.41-3.35-6.19-5.56-.45,2.44-1.16,4.75-2.19,6.99Z"/>
        <path class="cls-5" d="M30.34,57.59c-4.16-1.87-7.8-5.74-7.16-10.57.11-.86,1.17-1.19,1.82-.69,1.8,1.4,4.29,2.89,6.66,2.95,1.25-4.22,3.49-7.98,7.28-10.26-2.85-4.46-6.45-8.38-8.65-13.24-.2-.44-.02-1.05.39-1.32,6.67-4.42,16.63-5.84,24.34-3.87.58.15,1.05.66.92,1.29-1.1,5.7-4.88,10.25-6.47,15.74,3.58,1.63,6.5,4.6,8.66,8.18,2.47-2.2,4.59-4.76,7.2-6.81.69-.54,1.68-.03,1.78.79.6,4.87,6.89,30.94-4.89,25.91-1.5,9.34-7.56,16.71-16.3,20.56-.43.19-.8.1-1.07-.13h-.05c-8.87-1.95-13.9-14.1-14.42-22.29-.13-1.97-.17-4.1-.06-6.26ZM58.68,70.5l-.16-.13c-6.66-6.55-16.95-4.39-24.62-.95-.07.03-.14.05-.21.07,1.76,6.25,5.62,13.14,11.49,14.43.1.02.19.05.27.09,6.02-2.75,10.85-7.53,13.23-13.52ZM60.14,64.64c-.12-.11-.21-.25-.28-.44-1.17-3.22-6.56-6.2-9.23-3.08-.45.52-1.38.58-1.78-.05-1.62-2.54-5.93-3.27-6.68.42-.17.82-1.14,1.23-1.82.69-2.8-2.27-5.31-.9-6.82,1.98-.19.36-.48.54-.79.59.09.81.23,1.65.41,2.54,8.18-3.65,19.09-5.66,26.31.88.32-1.14.55-2.32.68-3.53ZM59.24,47.82c2.46,4.92,3.61,10.64,3.26,15.53,5.91,2.8,4.93-6.53,4.54-10.16-.4-3.74-1.28-7.4-1.87-11.11-2.04,1.85-3.86,3.92-5.93,5.74ZM37.89,42.59c3.03-1.2,6.04-1.11,8.69,1.36,1.67-1.16,3.39-1.93,5.33-2.13-1.17-.98-2.46-1.78-3.87-2.37-.35-.14-.54-.39-.61-.66-.29-.21-.45-.56-.33-1.02,1.41-5.39,5.02-9.85,6.39-15.22-6.64-1.36-14.87-.25-20.69,3.24,2.17,4.36,5.49,7.99,8.09,12.1.16.26.21.52.17.76.47.5.5,1.51-.32,1.92-1.07.54-2.02,1.22-2.85,2.02ZM33.21,52.01c2.75-1.52,5.79-2.17,8.1-.08,2.04-2.98,6.22-2.73,8.89-.08,2.37-1.59,5.12-2.39,7.71-1.46-.98-2.35-2.26-4.55-3.85-6.41-.15.05-.32.08-.51.06-2.55-.24-4.47.8-6.43,2.3-.52.4-1.18.21-1.57-.24-2.99-3.43-6.51-2.02-9.74.15-.24.16-.48.21-.7.2-.87,1.71-1.48,3.6-1.9,5.57ZM32.5,61.65c2.03-2.63,5.01-3.69,8-2.06,1.8-3.52,6.65-3.71,9.39-.81,3.1-2.3,7.7-.96,10.36,1.89-.12-2.4-.56-4.92-1.3-7.38-.23,0-.46-.06-.69-.22-2.57-1.85-5.44-.44-7.55,1.2-.49.38-1.21.23-1.57-.24-1.55-2.06-5.42-3.54-6.46.14-.24.85-1.43,1.38-2.02.48-2.07-3.2-5.3-1.5-7.73.19l-.19.11c-.27,2.29-.32,4.59-.23,6.71ZM30.52,55.18c.13-1.24.32-2.47.58-3.68-1.97-.19-3.91-1.03-5.62-2.1.54,2.54,2.7,4.54,5.05,5.78Z"/>
        <path class="cls-5" d="M43.34,36.16c-1.07-3.14-2.13-6.28-2.98-9.49-.37-1.4-2.47-.57-2.1.82.86,3.21,1.91,6.35,2.98,9.49.47,1.37,2.56.55,2.1-.82Z"/>
        <path class="cls-5" d="M46.5,32.36c0-2.34.04-4.68.25-7.01.13-1.44-2.09-1.82-2.22-.37-.23,2.53-.27,5.07-.26,7.61,0,1.45,2.24,1.21,2.24-.23Z"/>
        <path class="cls-5" d="M52.13,75.92c-1.12,1.17-2.62,1.34-3.99.48-1.04-.65-1.86-1.95-1.84-3.2.04-1.76,1.35-2.7,2.95-3.06.19-.04.38,0,.55.07.28-.18.63-.25,1.03-.08,2.29.97,3.07,3.93,1.3,5.78ZM50.87,73.3c-.09-.53-.47-.88-.94-1.09-.14.08-.29.14-.45.18-.12.03-.51.19-.49.17-.09.06-.19.12-.27.19l-.02.03-.09.14-.04.1-.03.15c0,.08.01.15.03.23l.03.13c.03.07.23.47.11.28.25.41.28.45.6.69.19.14.29.2.53.23h.14s.05,0,.05,0h.02c.25-.11.05.02.28-.17.21-.18.61-.77.53-1.24Z"/>
        <path class="cls-5" d="M194.93,208.73c-7.68.99-15.49,2.47-23.27,1.95-6.26-.42-12.44-1.83-18.27-4.16-9.54-3.81-21.88-10.6-21.85-22.38v-.05c-4.78-2.22-10.26-2.89-14.42-6.35-1.11-.92.15-2.79,1.26-1.86,3.39,2.81,7.76,3.81,11.87,5.31-1.97-2.31-5.25-3.78-7.6-5.39-3.25-2.22-6.08-5.32-8.58-8.33-.93-1.11.78-2.58,1.71-1.46,3.29,3.97,6.94,7.11,11.23,9.91,1.11.72,2.29,1.49,3.37,2.36-3.07-5.02-7.17-9.39-10.28-14.4-.76-1.23,1.27-2.19,2.03-.97,3.44,5.54,8.05,10.26,11.18,15.97-.08-4.81-2.53-9.39-4-13.88-.45-1.36,1.58-2.35,2.03-.97,1.73,5.24,4.61,10.58,4.18,16.24,2.06-1.24,4.4-1.6,6.95-.36,2.22,1.08,3.61,3.41,5.03,5.32,2.22,2.97,5.25,5.05,8.33,7.07,12,7.85,24.53,13.12,38.95,14.21,1.25.09,1.43,2.06.14,2.23ZM186.09,207.64c-8.34-1.54-16.4-4.42-23.78-8.69-4.73-2.74-10.59-5.7-14.38-9.7-1.82-1.93-3.06-4.45-5.02-6.24-3.01-2.74-6.16-1.63-8.54,1.16-.17.19-.36.31-.57.37.16,11.17,13.69,17.66,22.74,20.75,5.65,1.93,11.55,3.21,17.55,3.22,4.02.01,8.02-.38,12-.87Z"/>
        <path class="cls-5" d="M78.82,0h.71c.58.05,1.21.23,1.88.58,3.19,1.65,3.16,6.93,3.55,10.39.28.07.53.26.7.47.72.91,2.85,4.15,4.27,3.67.4-.14.75-.05,1.01.15,5.8-7.55,15.55-11.82,25.31-10.23,11.78,1.92,21.37,12.5,24.15,23.88,3.44,14.08-13.39,18.16-23.84,19.82-6.15.98-13.85,3.07-20.04,1.37-4.84-1.33-7.75-4.65-9.93-9.04-.13-.27-.14-.51-.08-.71-4.2-3.77-8.61-8.27-14.06-8.42-.68-.02-1.21-.48-1.2-1.16-2.28.29-4.56,1.7-6.87,1.22-1.44-.29-2.82-1.07-3.69-2.27-1.56-2.15-.98-4.18.91-5.13-1.18-2.14-1.03-4.71,1.83-5.7,3.73-1.28,6.48,2.71,9.76,3.73.17-.48.57-.73.99-.78.27-.41.77-.62,1.31-.27,3.05,1.96,5.91,1.99,8.81,1.37-1.91-1.89-3.38-4.27-3.52-6.54-.08-.05-.15-.12-.22-.19-1.46-1.62-4.13-2-5.84-3.34-1.21-.94-2.31-2.18-2.61-3.73-.51-2.67,1.34-3.83,3.5-4.08C75.32,2.57,76.6.23,78.82,0ZM72.54,24.8c-1.63-.46-2.97-1.42-4.4-2.42-1.05-.74-2.39-1.65-3.76-1.39-2.08.38-1.24,2.33-.24,3.38.68.7.38,1.85-.65,1.97-2.56.31-1.22,2.51.44,3.19,2.39.98,5.21-.95,7.69-1.05.26-1.24.56-2.46.91-3.68ZM89.92,21.3c.9-.28,1.82-.55,2.75-.77,3.77-.88,8.24-.85,11.5,1.54,5.99,4.4,7.57,14.24,2.1,19.84-4.54,4.65-9.93,5.28-15.24,2,2.38,2.82,5.56,4.48,9.72,4.42,5.19-.07,10.52-.98,15.63-1.85,5.84-.99,12.86-2.19,17.77-5.79,4.6-3.38,5.31-8.49,3.36-13.64-1.55-4.1-3.96-8.19-7.05-11.59-.57,2.42-1.34,4.75-3.33,6.42-1.11.94-2.38-.93-1.28-1.85,1.86-1.56,2.24-4.22,2.73-6.47-2.19-2.04-4.66-3.73-7.37-4.87.33,3.11.05,6.28-.88,9.27-.42,1.37-2.64.95-2.21-.43.96-3.1,1.2-6.32.74-9.53v-.14c-1.32-.38-2.68-.63-4.08-.73-1.09-.08-2.17-.08-3.24-.03.77,3.35,1.23,6.84.47,10.24-.31,1.41-2.52.99-2.21-.43.69-3.11.26-6.33-.46-9.39-.02-.08-.03-.16-.03-.24-8.46,1.07-15.77,6.07-19.4,14.03ZM75.11,23.97c-.58,1.93-1.08,3.87-1.44,5.85,4.78.68,8.6,4.05,12.17,7.15,3.93,3.42,9.93,9.41,15.57,5.97,3.88-2.36,6.44-6.48,5.88-11.15-.67-5.64-5-10.03-10.96-9.52-7.6.65-14.01,5.84-21.22,1.71ZM86.88,22.26c.1-.03.2-.06.29-.09,0-.11.03-.21.07-.33.6-1.57,1.34-3.06,2.22-4.47-2.01-.14-3.75-2.2-5.03-3.84-3.5,2.42-.18,6.55,2.45,8.72ZM78.07,5.76c.32.88-.46,1.55-1.27,1.48-4.89-.38-1.17,3.78.92,4.81,1.19.59,2.45,1.11,3.53,1.87.33-.69.85-1.34,1.58-1.93-.37-2.25-.51-4.56-1.05-6.77-.29-1.18-.66-2.78-2.16-2.98-2.23-.3-2.06,2.12-1.54,3.52Z"/>
        <path class="cls-5" d="M23.04,191.35c8.77,6.54,19.27,13.46,30.32,15.07,7.35,1.07,12.6-2.76,13.8-10.06,1.35-8.28-3.32-14.5-9.92-17.6-.22-9.44-7.86-14.04-16.44-16.06-3.68-8.11-9.68-14.92-17.59-17.56.17-.21.26-.48.21-.83C21.98,134.62,8.67,131.44,0,135.03v2.31c1.23-.58,2.71-1.01,4.47-1.26,6.08-.86,15.59,1.35,16.7,8.48-2.64-.62-5.47-.78-8.48-.39-1.44.19-1.12,2.41.31,2.23,7.59-.97,13.85,1.87,18.65,6.68-4.31-1.42-9.46-1.56-13.31.24-1.31.62-.17,2.55,1.13,1.94,4.32-2.02,10.91-.92,14.86,1.5.19.12.38.16.56.17,1.17,1.63,2.22,3.38,3.14,5.22-4.26-.73-8.57-.91-12.2-.78-1.45.05-1.12,2.28.31,2.23,6.99-.24,17.82.66,24.04,5.54-4.6-.51-9.15-.42-13.35,1.94-1.27.71-.13,2.65,1.13,1.94,4.4-2.46,9.32-2.09,14.13-1.39.19.03.37,0,.53-.04,1.31,1.72,2.15,3.79,2.35,6.27-3.47-1.19-7.31-1.58-11.01-1.04-1.44.21-1.12,2.44.31,2.23,10.01-1.46,21.53,4.41,20.81,15.63-.34,5.29-2.96,9.31-8.48,9.69-5.42.37-11.1-2.27-15.83-4.59-5.59-2.73-10.84-6.17-15.86-9.82-8.21-5.99-14.6-13.24-20.51-21.49C3.09,166.62,1.5,164.19,0,161.47v4.55c1.11,1.67,2.19,3.19,3.13,4.5,5.72,7.99,12.04,14.96,19.91,20.83Z"/>
        <path class="cls-5" d="M129.33,97.09c.37-3.52,3.91-7.98,7.57-8.58.12-.02.23-.02.33,0,.73-7.87,2.61-15.99,7.77-22.22,4.85-5.86,12.39-10.74,20.15-11.18,7.8-.44,15.93,2.63,21.15,8.56,5.82,6.63,7.48,14.72,6.42,23.29l.1.15c.23-.17.54-.23.91-.09,3.98,1.5,7.72,3.99,11.14,6.49.66.48.79,1.48,0,1.94-3.31,1.93-6.52,1.1-9.95,1.75,3.91,3.28,2.8,7.32-.71,10,1.64,14.57-17.02,14.75-27.35,14.66-6.37-.06-14.08.63-20.21-1.44-4.46-1.51-6.69-4.54-7.44-8.96-.63-.25-1.24-.52-1.83-.84-5.14-2.81-4.29-7.23-.81-11.07.05-.62.02-1.24-.02-1.86-2.02.38-4,.72-6.09.54-.56-.05-1.19-.48-1.12-1.12ZM192.11,108.49c-.33.16-.68.32-1.03.46-4.28,1.71-9.33,1.94-13.88,2.42-5.56.59-11.14,1.02-16.73,1.22-5.72.21-12.8,1.13-18.81-.37,1.31,4.83,5.43,6.48,10.5,6.85,4.88.36,9.81.51,14.7.52,8.28.01,25.77.65,25.24-11.11ZM192.87,98.44c-.1-.07-.18-.14-.24-.22-1.32,1.24-2.37,3.41-4.06,3.38-.66-.01-1.16-.15-1.64-.65-1.1-1.13-.83-.94-1.97.01-1.5,1.25-2.67,1.06-4.45.38-1.37-.52-2.64-1.53-4.16-1.04-1.35.43-2.65,1.02-4.01,1.4-1.5.42-4.25-.77-5.13.32-2.37,2.92-5.68,1.19-7.7-1.11-3.13,2.34-6.83,4.59-8.61.65-.92.64-1.9,1.14-3.08,1.15-1.26,0-2.2-1.23-3.39-1.51-.21-.05-.36-.15-.48-.26-.79-.29-1.79-.37-2.6-.7-1.1.55-2.26,1.11-3.45,1.33h-.1c-8.62,10.23,16.66,9.02,21.3,8.85,6.98-.26,13.96-.72,20.89-1.6,3.57-.46,7.88-.53,11.11-2.31,3.48-1.92,6.29-5.01,1.8-8.05ZM139.53,88.13c.16,0,.33.04.49.13,7.76,3.84,17.45,4.36,25.96,4.16,8.05-.19,17.37-.85,24.49-5.1,0-.08,0-.17.01-.26.89-6.4.09-13.04-3.23-18.45-.72.95-1.54,1.84-2.22,2.82-.81,1.19-2.76.07-1.94-1.13.81-1.18,1.82-2.2,2.62-3.37.06-.09.13-.17.21-.23-.76-.98-1.6-1.91-2.55-2.78-3.7-3.35-8.53-5.8-13.56-6.48-.03,1.36-.35,2.69-.37,4.05-.02,1.45-2.27,1.45-2.25,0,.02-1.39.35-2.74.37-4.12v-.12c-1.32-.04-2.66.06-3.98.31-3.76.69-7.03,2.04-9.86,3.89,1.34.14,2.69.25,4.02.46,1.43.22.82,2.39-.6,2.17-1.99-.31-4.01-.41-6-.7-2.49,2.11-4.56,4.66-6.23,7.5,1.03.59,2,1.38,2.83,2.19,1.04,1.02-.55,2.61-1.59,1.59-.69-.68-1.48-1.31-2.33-1.82-2.35,4.64-3.75,9.92-4.3,15.29ZM131.85,96.01c1.83-.04,3.61-.41,5.44-.75.74-.14,1.38.31,1.42,1.08.05.88.1,1.72.1,2.57.67-.27,1.32-.6,1.96-.91.6-.3,1.15-.11,1.54.4-.68-.9,1.07.01,1.73.21.45.14.89.27,1.32.48l.03.02c2.24.66,2.62,1.89,5.28-.19.63-.49,1.66-.41,1.88.5,1.06,4.29,4.66.44,6.6-1.05.51-.39,1.23-.05,1.54.4.52.77,3.12,3.88,4.5,2.19.3-.36.94-1.45,1.46-1.68,1.71-.76,3.01.82,4.48.41,3.82-1.06,5.67-2.36,9.45-.76,1.92.82,2.59.59,3.95-.76.34-.34.92-.71,1.43-.71,2.09,0,2.01,2.88,4.04.08,2.75-3.8,7.93-2.16,12.05-3.34-2.78-1.96-5.76-3.86-8.89-5.03-.29-.11-.48-.29-.6-.51l-.03.02c-7.49,4.95-17.79,5.85-26.53,5.96-8.96.12-18.92-.42-27.09-4.46-.16-.08-.29-.18-.38-.3-.07.01-.14.02-.2.02-.06.37-.3.68-.8.76-2.23.36-4.82,2.99-5.66,5.33Z"/>
        <path class="cls-5" d="M149.36,83.04c.67,1.29,2.61.15,1.94-1.13-.55-1.05-1.36-1.98-1.76-3.11-.49-1.35-2.66-.77-2.17.6.48,1.33,1.34,2.41,1.99,3.64Z"/>
        <path class="cls-5" d="M155.42,72.53c-.68-1.08-.95-2.29-.97-3.56-.02-1.45-2.27-1.45-2.25,0,.03,1.65.39,3.29,1.28,4.69.77,1.22,2.72.09,1.94-1.13Z"/>
        <path class="cls-5" d="M159.55,79.67c.48-.87,1.72-1.63,2.6-2.22,1.2-.8.07-2.75-1.13-1.94-1.2.8-2.69,1.73-3.4,3.03-.7,1.27,1.24,2.41,1.94,1.13Z"/>
        <path class="cls-5" d="M162.74,69.28c.38,1.4,2.55.8,2.17-.6-.4-1.48-1.15-2.76-1.99-4.02-.8-1.2-2.75-.08-1.94,1.13.73,1.1,1.41,2.19,1.76,3.48Z"/>
        <path class="cls-5" d="M169.45,77.98c0,.75,2.25.75,2.25,0,0-1.5-.04-2.67-.42-3.86-.43-1.38-2.6-.7-2.17.69.31,1.01.33,1.67.33,3.17Z"/>
        <path class="cls-5" d="M173.2,68.23c1.27-.03,2.47-.39,3.67-.79,1.37-.46.78-2.63-.6-2.17-1,.33-2.01.68-3.08.71-1.45.03-1.45,2.28,0,2.25Z"/>
        <path class="cls-5" d="M178.25,77.45c1.22.8,2.53,1.45,3.75,2.25,1.22.8,2.34-1.15,1.13-1.94-1.22-.8-2.53-1.45-3.75-2.25-1.22-.8-2.34,1.15-1.13,1.94Z"/>
        <path class="cls-5" d="M141.48,0h2.82c.52.28,1.18.59,1.79.83l.11.04c.61.24,1.15.42,1.41.45.58.08,1.18.14,1.71.43,3.29,1.83,1.45,5.6-.58,7.53-2.14,2.04-2.87,4.24-1.16,5.9.67-1.33,1.72-2.48,3.28-2.57,1.84-.11,3.45.81,4.7,2.1,2.2,2.27,3.73,7-.48,7.94,1.23,3.88,1.05,8.34,2.47,12.15,11.66-1.24,19.82-9.4,26.24-18.56-6.3-4.54-11.94-9.9-17.7-15.12.05.33-.06.68-.42.94-3.09,2.21-7.28,2.22-10.11-.49-.52-.49-.93-1.03-1.25-1.58h2.83c.08.07.16.14.25.21,2.1,1.56,4.69,1.68,6.84.14.25-.18.51-.24.76-.22-.05-.04-.1-.09-.15-.13h3.2c5.54,5,11.03,10.08,17.09,14.44.17.13.29.27.36.43.19.04.37.13.52.25,3.34-.27,4.59,2.47,5.59,5.6,1.07,3.37-.47,6.79-2.89,9.14-7.71,7.49-17.53,10.5-27.75,12.69.1.36.02.77-.36,1.08-1.88,1.55-4.29,1.73-6.16.08-.92-.81-1.62-1.96-1.94-3.18-.29-.06-.54-.25-.67-.64-2.3-6.9-2.54-14.2-3.69-21.34-.5.02-1.04-.31-1.22-.83-.83-.48-1.56-1.06-2.04-1.94-1.34-2.43-.65-5.19,1.25-7.07-.04-.12-.07-.24-.07-.39-.03-1.79-.33-3.5-1.01-5.13-.51-.16-.99-.4-1.41-.81-.74-.73-1.65-1.45-2.14-2.39ZM158.99,36.9c.73,1.02,1.23,2.24,1.55,3.45,6.44-1.36,12.96-2.82,18.68-6.21,3.08-1.83,7.05-4.16,9.1-7.24,1.43-2.14,2.1-10.3-2.62-9.46-6.56,9.39-15,17.78-26.71,19.46ZM154.55,38.71c-.17,2.38,1.98,4.8,4.17,3.51-.06-.11-.11-.23-.14-.37-.26-1.4-.79-3.02-1.76-4.1-.95-1.06-2.17-.4-2.27.96ZM152.05,21.21c-.38-.65-.9-1.13-1.48-1.54.8,5.58,1.13,11.29,2.54,16.74.53-.71,1.29-1.26,2.11-1.46-1.37-4.49-.81-9.75-3.18-13.74ZM149.47,16.39c1.29.6,2.71,1.26,3.61,2.39.46.58.84,1.19,1.16,1.82.09-.05.19-.09.31-.11.99-.19,1.17-.68.95-1.59-.26-1.08-.99-2.09-1.8-2.85-.65-.61-1.71-1.35-2.61-1.19-.8.14-1.29.79-1.62,1.53ZM147.56,3.6c.31,1.01.51,2.05.62,3.11.16-.2.3-.4.42-.62.99-1.87.02-2.34-1.03-2.5Z"/>
        <path class="cls-5" d="M162.3,17.07c-.19-2.93,1.55-5.54,4.35-6.48,3.41-1.15,6.38.89,8.16,3.7.16.24.19.47.16.68.69,3.4-.91,8.11-4.97,8.42-3.46.26-7.47-2.66-7.7-6.31ZM164.51,16.37c0,2.34,2.67,5.21,5.12,4.8,2.81-.47,3.63-3.37,3.13-5.84v-.14c-1.15-1.75-3.25-3.33-5.43-2.45-1.51.61-2.8,1.92-2.81,3.64Z"/>
        <path class="cls-5" d="M16.24,36.73c3.34-4.72,4.08-10.33,5.86-15.69.22-.65.48-1.25.77-1.82.42-.11.74-.45.66-1.03l-.02-.1c2.4-3.72,6.3-5.84,9.23-9.26.76.04,1.59-.79,1.13-1.7-.23-.46-.45-.92-.67-1.38.2.03.42.01.64-.09,4.63-1.99,13.45,1.8,16.73-3.42C51.11,1.42,51.29.67,51.24,0h-2.28c.03.16.04.33.01.52-.35,2.01-4.14,2.26-5.57,2.31-3.91.14-6.95-.7-10.69.9-.13.06-.23.13-.32.21-.34-.82-.65-1.65-.89-2.51C32.45,1.05,33.32.56,34.13,0h-9.29C22.66.64,20.16.52,17.56,0h-7.32c5.73,1.96,13.56,4.35,18.69.4.44,2.33,1.36,4.51,2.39,6.64-2.43,3.1-5.97,5.06-8.56,8.04-.9-2.61-2.34-5-3.52-7.56-.6-1.32-2.54-.17-1.94,1.13,1.32,2.88,3.17,5.6,3.82,8.73-1.39,2.48-2.1,5.43-2.78,8.28-1.15-8.41-5.43-16.44-12.24-21.56-1.16-.87-2.28,1.08-1.13,1.94,7.58,5.69,11.65,15.55,11.44,24.9,0,.27.07.49.19.66-1.17,2.85-2.92,5.33-5.05,7.43,1.87-7.98-1.44-16.86-6.17-23.28-.85-1.15-2.8-.04-1.94,1.13,4.94,6.71,8.7,16.69,4.87,24.73l-.06.16c-2.17,1.52-4.56,2.73-7.08,3.62,2.41-3.63,1.64-8.93.77-12.88C1.46,30.34.79,28.17,0,26.04v7.81c.59,2.81.78,5.69.1,8.41-.03.11-.07.21-.1.31v5.56c6.51-1.84,12.15-5.61,16.24-11.4Z"/>
        <path class="cls-5" d="M224.38,68.03c.18-.12.37-.23.55-.35v3.24c-.5.74-1,1.52-1.49,2.31-.72,2.64.25,5.73,1.49,8.47v4.87c-.08-.07-.15-.16-.2-.26-.29-.55-.59-1.14-.89-1.74-.53,1.86-1.43,3.57-2.54,5.17.92,2.44,2.02,4.71,3.63,6.73v2.88c-.29,0-.59-.12-.78-.32-1.97-2.14-3.33-4.59-4.43-7.23-1.07,1.27-2.25,2.47-3.44,3.62h0c.95,4.74,4.01,7.89,7.19,11.19.57-1.06,1.05-2.13,1.46-3.21v5.19c-.09.15-.17.3-.26.45-.37.61-1.26.76-1.77.23-3.52-3.71-7.1-7.11-8.5-12.07-.39.36-.78.72-1.15,1.08-.49.46-1.45.46-1.77-.23-2.15-4.66-2.35-9.36-1.68-14.36-.75-.12-1.55-.32-2.4-.62-.62-.22-.9-.74-.79-1.38,1.24-7.22,9.81-12.46,16.53-13.53.36-.06.66.04.89.22.08-.13.19-.25.34-.36ZM221.33,72.46c.17-.61.43-1.2.75-1.77-5.35,1.36-11.46,5.19-13.04,10.53,6.31,1.6,9.35-3.82,12.28-8.76ZM222.23,81.3c-.57-1.45-1.18-2.94-1.4-4.43-2.37,3.54-4.89,6.58-9.39,6.91h0c0,4.05-.26,7.99,1.13,11.79,4.01-3.69,8.91-8,9.41-13.58.03-.29.09-.52.25-.69Z"/>
        <path class="cls-5" d="M219.59,138.95c-5.94,7.74.04,19.11,5.34,27.08v-4.55c-4.77-8.61-8.68-20.06,0-24.13v-2.31c-2.15.89-4.02,2.19-5.34,3.91Z"/>
        <path class="cls-5" d="M197.13,24.43c2.12,9.2,7.22,20.94,16.76,24.48,2.31.86,5.02.85,7.41.04,1.24-.21,2.44-.48,3.62-.82v-5.56c-.68,2.25-2.39,3.62-4.43,4.24-.68.1-1.35.19-2.03.25-.19.02-.35.07-.49.15-1.19.03-2.39-.13-3.49-.48-8.56-2.73-12.99-14.41-15.02-22.18-1.78-6.84-3.59-19.36,3.81-23.75,4.93,3.88,9.56,7.54,12.98,12.89,2.78,4.34,5.02,9.07,6.79,13.9.72,1.97,1.42,4.09,1.87,6.25v-7.81c-1.44-3.86-3.3-7.59-5.3-11.11C216.11,8.7,211.33,4.37,205.86,0h-5.29c-6.51,5.53-5.13,17.1-3.44,24.43Z"/>
        <path class="cls-5" d="M215.33,31.89c-2.56,3.26-5.94,1.29-7.43-1.83-1.32-2.76-2.44-6.48-1.7-9.63-.14-.36-.11-.78.23-1.15.08-.09.17-.16.25-.24.14-.25.33-.4.54-.46,5.3-3.84,11.51,8.96,8.1,13.31ZM208.5,20.48c-.86,2.86,2.13,13.78,5.06,10.04,1.99-2.53-2.07-11.86-5.06-10.04Z"/>
        <path class="cls-5" d="M146.09,208.87c-2.91,1.81-5.76.54-6.98,4.39-.8,2.53,2.04,2.87,3.69,3.45.86.3,3.32,2.12,1.68,2.66-1.28.42-1.77,1.22-2.22,2.43-.27.74-1.3,1.49-1.08,2.4.06.26.17.51.3.74h2.82c-.58-.32-.97-.62-.87-.78.33-.53.65-1.01.94-1.56.67-1.3,1.93-1.33,2.95-2.15,2.85-2.29-1.68-4.75-3.17-5.54-.74-.39-1.47-.59-2.28-.78-1.76-.41,1.16-2.01,2-2.2.92-.21,1.8-.4,2.68-.71.76-.26,3.88,2.32,4.56,2.77,1.47.97,2.9,2,4.3,3.05l-.05.05c-2.04,2.35-2.5,5.35-1.05,7.85h2.83c-2.13-1.81-1.66-4.55.04-6.52,2.63,2.08,5.16,4.28,7.65,6.52h3.2c-6.51-5.87-13.11-11.63-20.82-15.96-.33-.18-.77-.32-1.13-.1Z"/>
        <path class="cls-5" d="M202.68,223.59l-.05.05c-.15.01-.31.05-.47.15-.58.34-1.1.72-1.59,1.14h5.29c-.2-.16-.4-.32-.6-.48,5.81-4.02,12.88-3.96,19.67-2.52v-2.35c-7.7-1.51-15.91-1.02-22.25,4.02Z"/>
        <path class="cls-5" d="M46.32,220.93c.94-3.08,1.96-5.91,1.16-9.21-.14-.58-.81-.96-1.38-.78-6.79,2.09-8.75,10.41-15.1,13.21v-.06c-.09-.52-.42-.77-.81-.81-.27-.68-1.17-1.11-1.83-.44-1.01,1.04-2.21,1.7-3.52,2.09h9.29c1.7-1.16,3.15-2.64,4.54-4.31,2.04-2.45,3.92-5.58,6.84-7.04.21,2.73-.95,5.24-1.7,7.88-.15.55.18,1.28.79,1.38,1.1.19,4.05.56,4.36,2.08h2.28c-.16-2.08-2.67-3.4-4.92-4Z"/>
        <path class="cls-5" d="M0,219.58v2.35c3.19.68,6.33,1.65,9.24,2.65.33.11.66.23,1.01.35h7.31c-5.28-1.05-10.9-3.71-14.75-4.71-.93-.24-1.87-.45-2.81-.64Z"/>
        <path class="cls-5" d="M196.68,162.11c-2.13,8.44-10.87,13.28-19.11,10.02-12.52-4.96-11.43-26.8,2.62-27.76,9.58-2.28,18.83,8.43,16.49,17.74ZM193.02,152.45c-2.37-3.46-6.7-6.24-10.96-6.04-.16.1-.36.17-.61.16-.29,0-.57,0-.84.02-.37.08-.74.18-1.11.31-.32.11-.59.08-.8-.03-9.42,2.29-10.3,17.36-1.85,22.36,6.2,3.66,15.01.92,17.24-6.21,1.08-3.46,1.05-7.48-1.07-10.58Z"/>
        <path class="cls-5" d="M181.74,163.11c-4.72-.93-3.9-7.76-1.38-10.49.98-1.06-.6-2.66-1.59-1.59-3.61,3.91-4.13,12.97,2.37,14.25,1.42.28,2.02-1.89.6-2.17Z"/>
        <path class="cls-5" d="M204.26,137.41c5.4,6.74,7.37,16.35,6.31,24.82-.87,6.98-3.57,16.08-8.89,21.08-2.73,2.56-6.17,3.95-9.96,3.64-2.39-.2-4.81-.8-7.2-.74-2.75.07-5.04.95-7.55,1.93-3.75,1.47-7.53,2.8-11.47,1.28-3.35-1.29-5.34-4.93-6.73-8-2.21-4.89-3.67-8.96-7.55-12.83-2.71-2.7-5.33-5.5-6.89-9.04-3.21-7.24,2.12-15.26,7.4-19.97,5.87-5.24,12.98-8.41,20.67-9.56.18-.2.45-.33.81-.32.53.02,1.05.02,1.58.03.1,0,.2-.02.29-.03.16-.01.3,0,.43.05,2.84.04,5.68.03,8.52.17,7.11.36,15.46,1.53,20.24,7.49ZM207.85,150.87c-1.78-8.09-5.86-15.2-14.33-17.39-6.14-1.58-12.49-1.37-18.79-1.49-8.53.81-17.19,4.34-23.03,10.77-2.83,3.11-6.25,7.43-6.13,11.91.11,3.93,2.26,7.14,4.88,9.93,2.63,2.81,5.66,5.22,7.35,8.76,1.52,3.19,2.42,6.79,4.32,9.78,6.29,9.92,14.05.43,22.38.82,4.41.21,9.7,2.03,13.68-.7,2.99-2.05,4.84-5.22,6.32-8.45,3.44-7.52,5.15-15.72,3.34-23.94Z"/>
        <path class="cls-5" d="M116.65,119.89c5.01.31,9.83,1.6,13.18,5.66,4.03,4.88,6.21,12.19,3.88,18.34-4.85,12.82-21.37,16.93-33.34,12.41-11.2-4.23-22.14-14.38-20.17-27.38,1.7-11.25,14.12-16.21,23.32-11.17-1.17-2.06-2.03-4.26-2.46-6.68-.13-.72.36-1.39,1.12-1.39,2.78,0,4.33,1.7,6.06,3.46.75-1.97,1.48-3.94,2.44-5.81.37-.73,1.62-.68,1.94.07.89,2.07,1.02,4.16,1.17,6.33,2.14-.79,4.31-1.31,6.64-1.4.61-.02,1.12.57,1.1,1.15-.11,3.31-2.36,4.99-4.89,6.4ZM103.64,112.23c.77,2.79,2.13,5.24,3.97,7.57.06.07.1.15.14.22,1.42-.07,2.88-.15,4.36-.19,2.34-1.39,5.99-2.45,6.95-5.13-1.99.24-3.82.81-5.72,1.63-.83.36-1.57-.15-1.66-1.02-.13-1.34-.14-2.69-.31-4.02-.55,1.38-1.06,2.79-1.61,4.17-.33.83-1.24,1.03-1.9.44-1.38-1.24-2.5-2.99-4.22-3.67ZM112.75,122.05c-.25.1-.49.1-.7.01-1.94.06-3.87.19-5.75.27-.5.02-.81-.23-.96-.57-.08-.05-.17-.1-.24-.17-4.27-3.94-11.16-4.92-16.27-1.95-4.83,2.81-7.16,8.36-6.59,13.86,1.06,10.14,10.39,18,19.64,20.94,10.07,3.2,26.13.59,29.69-11.2,1.71-5.69.41-12.73-4.07-16.9-4.11-3.83-9.42-4.4-14.75-4.3Z"/>
        <path class="cls-5" d="M94.3,122.2c-6.43,5.09-8.17,14.64-2.21,20.78,1.01,1.04,2.66-.49,1.65-1.53-5.16-5.32-3.39-13.27,2.09-17.6,1.14-.9-.4-2.54-1.53-1.65Z"/>
      </g>
    </pattern>
  </defs>
  <!-- Generator: Adobe Illustrator 28.7.1, SVG Export Plug-In . SVG Version: 1.2.0 Build 142)  -->
  <g class="cls-4">
    <g id="_-2" data-name="">
      <rect id="textura" class="cls-3" y="0" width="4549.22" height="3106.43"/>
    </g>
  </g>
</svg>